<?xml version="1.0" encoding="utf-8"?>
<!-- Generator: Adobe Illustrator 16.0.3, SVG Export Plug-In . SVG Version: 6.00 Build 0)  -->
<!DOCTYPE svg PUBLIC "-//W3C//DTD SVG 1.1//EN" "http://www.w3.org/Graphics/SVG/1.1/DTD/svg11.dtd">
<svg version="1.1" id="Ebene_1" xmlns="http://www.w3.org/2000/svg" xmlns:xlink="http://www.w3.org/1999/xlink" x="0px" y="0px"
	 width="256px" height="256px" viewBox="0 0 256 256" enable-background="new 0 0 256 256" xml:space="preserve">
<g>
	<g>
		<path fill="#1D1D1B" d="M50.048,60.485c-3.319,4.294-2.235,21.288,5.327,25.14C62,89,79.196,83.939,79.654,75.75
			c1.721-30.75,21.971-43.375,32.471-49.625C83.75,30.114,60.78,46.602,50.048,60.485z"/>
		<path fill="none" stroke="#1D1D1B" stroke-miterlimit="10" d="M50.048,60.485c-3.319,4.294-2.235,21.288,5.327,25.14
			C62,89,79.196,83.939,79.654,75.75c1.721-30.75,21.971-43.375,32.471-49.625C83.75,30.114,60.78,46.602,50.048,60.485z"/>
	</g>
	<g>
		<path fill="#1D1D1B" d="M60.485,205.951c4.294,3.32,21.288,2.235,25.14-5.326C89,194,83.939,176.804,75.75,176.346
			c-30.75-1.721-43.375-21.971-49.625-32.471C30.114,172.25,46.602,195.22,60.485,205.951z"/>
		<path fill="none" stroke="#1D1D1B" stroke-miterlimit="10" d="M60.485,205.951c4.294,3.32,21.288,2.235,25.14-5.326
			C89,194,83.939,176.804,75.75,176.346c-30.75-1.721-43.375-21.971-49.625-32.471C30.114,172.25,46.602,195.22,60.485,205.951z"/>
	</g>
	<g>
		<path fill="#1D1D1B" d="M25.14,135.38c0.689,5.384,13.473,16.633,21.543,14.01c7.071-2.298,15.652-18.036,10.186-24.15
			c-20.527-22.96-15.135-46.207-12.13-58.05C27.495,90.073,22.911,117.974,25.14,135.38z"/>
		<path fill="none" stroke="#1D1D1B" stroke-miterlimit="10" d="M25.14,135.38c0.689,5.384,13.473,16.633,21.543,14.01
			c7.071-2.298,15.652-18.036,10.186-24.15c-20.527-22.96-15.135-46.207-12.13-58.05C27.495,90.073,22.911,117.974,25.14,135.38z"/>
	</g>
	<g>
		<path fill="#1D1D1B" d="M135.38,230.86c5.384-0.689,16.633-13.473,14.01-21.543c-2.298-7.071-18.036-15.652-24.15-10.186
			c-22.96,20.527-46.207,15.135-58.05,12.13C90.073,228.506,117.974,233.089,135.38,230.86z"/>
		<path fill="none" stroke="#1D1D1B" stroke-miterlimit="10" d="M135.38,230.86c5.384-0.689,16.633-13.473,14.01-21.543
			c-2.298-7.071-18.036-15.652-24.15-10.186c-22.96,20.527-46.207,15.135-58.05,12.13C90.073,228.506,117.974,233.089,135.38,230.86
			z"/>
	</g>
	<g>
		<path fill="#1D1D1B" d="M205.951,195.515c3.32-4.294,2.235-21.288-5.326-25.14c-6.625-3.375-23.821,1.686-24.279,9.875
			c-1.721,30.75-21.971,43.375-32.471,49.625C172.25,225.887,195.22,209.398,205.951,195.515z"/>
		<path fill="none" stroke="#1D1D1B" stroke-miterlimit="10" d="M205.951,195.515c3.32-4.294,2.235-21.288-5.326-25.14
			c-6.625-3.375-23.821,1.686-24.279,9.875c-1.721,30.75-21.971,43.375-32.471,49.625
			C172.25,225.887,195.22,209.398,205.951,195.515z"/>
	</g>
	<g>
		<path fill="#1D1D1B" d="M120.62,25.14c-5.384,0.689-16.633,13.473-14.01,21.543c2.298,7.071,18.037,15.652,24.151,10.186
			c22.96-20.527,46.206-15.135,58.051-12.13C165.927,27.495,138.025,22.911,120.62,25.14z"/>
		<path fill="none" stroke="#1D1D1B" stroke-miterlimit="10" d="M120.62,25.14c-5.384,0.689-16.633,13.473-14.01,21.543
			c2.298,7.071,18.037,15.652,24.151,10.186c22.96-20.527,46.206-15.135,58.051-12.13C165.927,27.495,138.025,22.911,120.62,25.14z"
			/>
	</g>
	<g>
		<path fill="#1D1D1B" d="M195.515,50.048c-4.294-3.319-21.288-2.235-25.14,5.326C167,62,172.062,79.196,180.25,79.654
			c30.75,1.72,43.375,21.97,49.625,32.471C225.887,83.75,209.398,60.78,195.515,50.048z"/>
		<path fill="none" stroke="#1D1D1B" stroke-miterlimit="10" d="M195.515,50.048c-4.294-3.319-21.288-2.235-25.14,5.326
			C167,62,172.062,79.196,180.25,79.654c30.75,1.72,43.375,21.97,49.625,32.471C225.887,83.75,209.398,60.78,195.515,50.048z"/>
	</g>
	<g>
		<path fill="#1D1D1B" d="M230.86,120.62c-0.689-5.384-13.473-16.633-21.543-14.01c-7.071,2.298-15.652,18.037-10.186,24.151
			c20.527,22.96,15.135,46.206,12.13,58.051C228.506,165.927,233.089,138.025,230.86,120.62z"/>
		<path fill="none" stroke="#1D1D1B" stroke-miterlimit="10" d="M230.86,120.62c-0.689-5.384-13.473-16.633-21.543-14.01
			c-7.071,2.298-15.652,18.037-10.186,24.151c20.527,22.96,15.135,46.206,12.13,58.051
			C228.506,165.927,233.089,138.025,230.86,120.62z"/>
	</g>
</g>
<g>
</g>
<g>
</g>
<g>
</g>
<g>
</g>
<g>
</g>
<g>
</g>
</svg>
